TITLE ""
FILE "1Q_t_1239-1248.mp3" MP3
  TRACK 01 AUDIO
    TITLE "1Q_t_1239-1248_01"
    INDEX 01 00:00:00
  TRACK 02 AUDIO
    TITLE "1Q_t_1239-1248_02"
    INDEX 01 00:01:27
  TRACK 03 AUDIO
    TITLE "1Q_t_1239-1248_03"
    INDEX 01 00:01:35
  TRACK 04 AUDIO
    TITLE "1Q_t_1239-1248_04"
    INDEX 01 00:04:71
  TRACK 05 AUDIO
    TITLE "1Q_t_1239-1248_05"
    INDEX 01 00:05:02
  TRACK 06 AUDIO
    TITLE "1Q_t_1239-1248_06"
    INDEX 01 00:10:09
  TRACK 07 AUDIO
    TITLE "1Q_t_1239-1248_07"
    INDEX 01 00:10:54
  TRACK 08 AUDIO
    TITLE "1Q_t_1239-1248_08"
    INDEX 01 00:11:65
  TRACK 09 AUDIO
    TITLE "1Q_t_1239-1248_09"
    INDEX 01 00:11:73
  TRACK 10 AUDIO
    TITLE "1Q_t_1239-1248_10"
    INDEX 01 00:13:36
  TRACK 11 AUDIO
    TITLE "1Q_t_1239-1248_11"
    INDEX 01 00:13:42
  TRACK 12 AUDIO
    TITLE "1Q_t_1239-1248_12"
    INDEX 01 00:19:43
  TRACK 13 AUDIO
    TITLE "1Q_t_1239-1248_13"
    INDEX 01 00:20:19
  TRACK 14 AUDIO
    TITLE "1Q_t_1239-1248_14"
    INDEX 01 00:21:61
  TRACK 15 AUDIO
    TITLE "1Q_t_1239-1248_15"
    INDEX 01 00:21:67
  TRACK 16 AUDIO
    TITLE "1Q_t_1239-1248_16"
    INDEX 01 00:24:70
  TRACK 17 AUDIO
    TITLE "1Q_t_1239-1248_17"
    INDEX 01 00:25:02
  TRACK 18 AUDIO
    TITLE "1Q_t_1239-1248_18"
    INDEX 01 00:32:46
  TRACK 19 AUDIO
    TITLE "1Q_t_1239-1248_19"
    INDEX 01 00:33:16
  TRACK 20 AUDIO
    TITLE "1Q_t_1239-1248_20"
    INDEX 01 00:34:29
  TRACK 21 AUDIO
    TITLE "1Q_t_1239-1248_21"
    INDEX 01 00:34:37
  TRACK 22 AUDIO
    TITLE "1Q_t_1239-1248_22"
    INDEX 01 00:35:54
  TRACK 23 AUDIO
    TITLE "1Q_t_1239-1248_23"
    INDEX 01 00:35:60
  TRACK 24 AUDIO
    TITLE "1Q_t_1239-1248_24"
    INDEX 01 00:40:73
  TRACK 25 AUDIO
    TITLE "1Q_t_1239-1248_25"
    INDEX 01 00:41:45
  TRACK 26 AUDIO
    TITLE "1Q_t_1239-1248_26"
    INDEX 01 00:42:71
  TRACK 27 AUDIO
    TITLE "1Q_t_1239-1248_27"
    INDEX 01 00:43:02
  TRACK 28 AUDIO
    TITLE "1Q_t_1239-1248_28"
    INDEX 01 00:44:39
  TRACK 29 AUDIO
    TITLE "1Q_t_1239-1248_29"
    INDEX 01 00:44:45
  TRACK 30 AUDIO
    TITLE "1Q_t_1239-1248_30"
    INDEX 01 00:50:57
  TRACK 31 AUDIO
    TITLE "1Q_t_1239-1248_31"
    INDEX 01 00:51:29
  TRACK 32 AUDIO
    TITLE "1Q_t_1239-1248_32"
    INDEX 01 00:52:48
  TRACK 33 AUDIO
    TITLE "1Q_t_1239-1248_33"
    INDEX 01 00:52:56
  TRACK 34 AUDIO
    TITLE "1Q_t_1239-1248_34"
    INDEX 01 00:54:14
  TRACK 35 AUDIO
    TITLE "1Q_t_1239-1248_35"
    INDEX 01 00:54:22
  TRACK 36 AUDIO
    TITLE "1Q_t_1239-1248_36"
    INDEX 01 00:58:74
  TRACK 37 AUDIO
    TITLE "1Q_t_1239-1248_37"
    INDEX 01 00:59:46
  TRACK 38 AUDIO
    TITLE "1Q_t_1239-1248_38"
    INDEX 01 01:00:40
  TRACK 39 AUDIO
    TITLE "1Q_t_1239-1248_39"
    INDEX 01 01:00:48
  TRACK 40 AUDIO
    TITLE "1Q_t_1239-1248_40"
    INDEX 01 01:02:54
  TRACK 41 AUDIO
    TITLE "1Q_t_1239-1248_41"
    INDEX 01 01:02:60
  TRACK 42 AUDIO
    TITLE "1Q_t_1239-1248_42"
    INDEX 01 01:08:14
  TRACK 43 AUDIO
    TITLE "1Q_t_1239-1248_43"
    INDEX 01 01:08:59
  TRACK 44 AUDIO
    TITLE "1Q_t_1239-1248_44"
    INDEX 01 01:10:03
  TRACK 45 AUDIO
    TITLE "1Q_t_1239-1248_45"
    INDEX 01 01:10:11
  TRACK 46 AUDIO
    TITLE "1Q_t_1239-1248_46"
    INDEX 01 01:11:53
  TRACK 47 AUDIO
    TITLE "1Q_t_1239-1248_47"
    INDEX 01 01:11:59
  TRACK 48 AUDIO
    TITLE "1Q_t_1239-1248_48"
    INDEX 01 01:17:40
  TRACK 49 AUDIO
    TITLE "1Q_t_1239-1248_49"
    INDEX 01 01:18:12
  TRACK 50 AUDIO
    TITLE "1Q_t_1239-1248_50"
    INDEX 01 01:19:27
  TRACK 51 AUDIO
    TITLE "1Q_t_1239-1248_51"
    INDEX 01 01:19:39
  TRACK 52 AUDIO
    TITLE "1Q_t_1239-1248_52"
    INDEX 01 01:21:60
  TRACK 53 AUDIO
    TITLE "1Q_t_1239-1248_53"
    INDEX 01 01:21:66
  TRACK 54 AUDIO
    TITLE "1Q_t_1239-1248_54"
    INDEX 01 01:26:35
  TRACK 55 AUDIO
    TITLE "1Q_t_1239-1248_55"
    INDEX 01 01:27:13
  TRACK 56 AUDIO
    TITLE "1Q_t_1239-1248_56"
    INDEX 01 01:28:15
  TRACK 57 AUDIO
    TITLE "1Q_t_1239-1248_57"
    INDEX 01 01:28:26
  TRACK 58 AUDIO
    TITLE "1Q_t_1239-1248_58"
    INDEX 01 01:29:20
  TRACK 59 AUDIO
    TITLE "1Q_t_1239-1248_59"
    INDEX 01 01:29:26
  TRACK 60 AUDIO
    TITLE "1Q_t_1239-1248_60"
    INDEX 01 01:34:62
